# xmcd
#
# Track frame offsets:
#	150
#	22397
#	42829
#	71321
#	94033
#	115968
#	138862
#	150349
#	174679
#	193891
#	209585
#	229687
#	256404
#
# Disc length: 3772 seconds
#
# Revision: 0
# Processed by: cddbd v1.4PL0 Copyright (c) Steve Scherf et al.
# Submitted via: EasyCDDAExtractor 4.6.0.1
#
DISCID=b50eba0d
DTITLE=Junior Wells - Everybody's Gettin' Some
DYEAR=1995
DGENRE=Blues
TTITLE0=Sweet Sixteen
TTITLE1=Everybody's Gettin' Some (Theme Song)
TTITLE2=I Can't Stand No Signifyin'
TTITLE3=Get Down
TTITLE4=Keep On Steppin'
TTITLE5=Shaky Ground
TTITLE6=You're Tough Enough
TTITLE7=Use Me
TTITLE8=Trying To Get Over You
TTITLE9=Last Hand Of The Night
TTITLE10=Don't You Lie To Me
TTITLE11=That's What Love Will Make You Do
TTITLE12=I'm Still In Love With You
EXTD=
EXTT0=
EXTT1=
EXTT2=
EXTT3=
EXTT4=
EXTT5=
EXTT6=
EXTT7=
EXTT8=
EXTT9=
EXTT10=
EXTT11=
EXTT12=
PLAYORDER=
